<svg width="447" height="100" viewBox="0 0 447 100" fill="none" xmlns="http://www.w3.org/2000/svg">
<rect width="100" height="100" rx="12" fill="url(#paint0_linear_1498_4)"/>
<path d="M18 67V31.5H41.9V37.15H24.5V46.4H41.3V52H24.5V61.35H42.3V67H18ZM48.7117 67L61.5117 31.5H69.4617L82.2617 67H75.4617L72.5117 58.6H58.4617L55.5117 67H48.7117ZM60.3617 53.05H70.6117L65.5117 38.05L60.3617 53.05Z" fill="white"/>
<path d="M113.52 47V15.76H134.552V20.732H119.24V28.872H134.024V33.8H119.24V42.028H134.904V47H113.52ZM139.522 47L147.97 35.032L139.83 23.504H145.946L151.314 31.512L156.594 23.504H162.798L154.702 35.076L163.106 47H156.99L151.402 38.552L145.77 47H139.522ZM168.12 53.6V23.504H173.532L173.664 28.52L173.092 28.256C173.678 26.5253 174.632 25.22 175.952 24.34C177.301 23.4307 178.87 22.976 180.66 22.976C182.889 22.976 184.737 23.5333 186.204 24.648C187.7 25.7627 188.814 27.244 189.548 29.092C190.281 30.94 190.648 32.9933 190.648 35.252C190.648 37.5107 190.266 39.564 189.504 41.412C188.77 43.26 187.656 44.7413 186.16 45.856C184.693 46.9707 182.845 47.528 180.616 47.528C179.442 47.528 178.342 47.3227 177.316 46.912C176.318 46.5013 175.453 45.9147 174.72 45.152C174.016 44.3893 173.517 43.4947 173.224 42.468L173.752 42.028V53.6H168.12ZM179.296 42.952C180.997 42.952 182.332 42.2773 183.3 40.928C184.297 39.5493 184.796 37.6573 184.796 35.252C184.796 32.8467 184.297 30.9693 183.3 29.62C182.332 28.2413 180.997 27.552 179.296 27.552C178.152 27.552 177.169 27.8453 176.348 28.432C175.526 28.9893 174.881 29.84 174.412 30.984C173.972 32.128 173.752 33.5507 173.752 35.252C173.752 36.9533 173.972 38.376 174.412 39.52C174.852 40.664 175.482 41.5293 176.304 42.116C177.154 42.6733 178.152 42.952 179.296 42.952ZM196.778 47V23.504H202.058L202.278 30.016L201.794 29.928C202.146 27.6693 202.806 26.0413 203.774 25.044C204.771 24.0173 206.121 23.504 207.822 23.504H209.978V28.344H207.778C206.575 28.344 205.578 28.52 204.786 28.872C203.994 29.224 203.393 29.7813 202.982 30.544C202.601 31.2773 202.41 32.2453 202.41 33.448V47H196.778ZM224.944 47.528C222.597 47.528 220.559 47.0293 218.828 46.032C217.097 45.0053 215.763 43.568 214.824 41.72C213.885 39.872 213.416 37.716 213.416 35.252C213.416 32.788 213.885 30.6467 214.824 28.828C215.763 26.98 217.083 25.5427 218.784 24.516C220.515 23.4893 222.524 22.976 224.812 22.976C227.041 22.976 228.992 23.4747 230.664 24.472C232.365 25.4693 233.671 26.9067 234.58 28.784C235.489 30.6613 235.944 32.92 235.944 35.56V36.836H219.268C219.385 38.8893 219.943 40.444 220.94 41.5C221.967 42.5267 223.316 43.04 224.988 43.04C226.249 43.04 227.291 42.7613 228.112 42.204C228.963 41.6173 229.549 40.8107 229.872 39.784L235.636 40.136C234.991 42.424 233.715 44.228 231.808 45.548C229.931 46.868 227.643 47.528 224.944 47.528ZM219.268 33.052H230.136C230.019 31.1453 229.476 29.7373 228.508 28.828C227.54 27.8893 226.308 27.42 224.812 27.42C223.316 27.42 222.069 27.904 221.072 28.872C220.104 29.84 219.503 31.2333 219.268 33.052ZM251.655 47.528C249.337 47.528 247.387 47.1907 245.803 46.516C244.248 45.8413 243.045 44.9027 242.195 43.7C241.344 42.4973 240.86 41.1333 240.743 39.608L246.507 39.344C246.712 40.576 247.225 41.5293 248.047 42.204C248.868 42.8787 250.085 43.216 251.699 43.216C253.019 43.216 254.045 43.0107 254.779 42.6C255.541 42.16 255.923 41.4853 255.923 40.576C255.923 40.048 255.791 39.608 255.527 39.256C255.263 38.904 254.764 38.596 254.031 38.332C253.297 38.068 252.212 37.804 250.775 37.54C248.369 37.1293 246.477 36.6307 245.099 36.044C243.72 35.428 242.737 34.6653 242.151 33.756C241.593 32.8467 241.315 31.7173 241.315 30.368C241.315 28.168 242.151 26.3933 243.823 25.044C245.524 23.6653 248.003 22.976 251.259 22.976C253.371 22.976 255.145 23.328 256.583 24.032C258.02 24.7067 259.135 25.6453 259.927 26.848C260.748 28.0213 261.261 29.3707 261.467 30.896L255.791 31.16C255.644 30.368 255.38 29.6787 254.999 29.092C254.617 28.5053 254.104 28.0653 253.459 27.772C252.813 27.4493 252.051 27.288 251.171 27.288C249.851 27.288 248.853 27.552 248.179 28.08C247.504 28.608 247.167 29.312 247.167 30.192C247.167 30.808 247.313 31.3213 247.607 31.732C247.929 32.1427 248.443 32.48 249.147 32.744C249.851 32.9787 250.789 33.1987 251.963 33.404C254.427 33.7853 256.363 34.284 257.771 34.9C259.208 35.4867 260.22 36.2493 260.807 37.188C261.423 38.0973 261.731 39.1973 261.731 40.488C261.731 41.984 261.305 43.26 260.455 44.316C259.633 45.372 258.46 46.1787 256.935 46.736C255.439 47.264 253.679 47.528 251.655 47.528ZM277.434 47.528C275.117 47.528 273.166 47.1907 271.582 46.516C270.027 45.8413 268.825 44.9027 267.974 43.7C267.123 42.4973 266.639 41.1333 266.522 39.608L272.286 39.344C272.491 40.576 273.005 41.5293 273.826 42.204C274.647 42.8787 275.865 43.216 277.478 43.216C278.798 43.216 279.825 43.0107 280.558 42.6C281.321 42.16 281.702 41.4853 281.702 40.576C281.702 40.048 281.57 39.608 281.306 39.256C281.042 38.904 280.543 38.596 279.81 38.332C279.077 38.068 277.991 37.804 276.554 37.54C274.149 37.1293 272.257 36.6307 270.878 36.044C269.499 35.428 268.517 34.6653 267.93 33.756C267.373 32.8467 267.094 31.7173 267.094 30.368C267.094 28.168 267.93 26.3933 269.602 25.044C271.303 23.6653 273.782 22.976 277.038 22.976C279.15 22.976 280.925 23.328 282.362 24.032C283.799 24.7067 284.914 25.6453 285.706 26.848C286.527 28.0213 287.041 29.3707 287.246 30.896L281.57 31.16C281.423 30.368 281.159 29.6787 280.778 29.092C280.397 28.5053 279.883 28.0653 279.238 27.772C278.593 27.4493 277.83 27.288 276.95 27.288C275.63 27.288 274.633 27.552 273.958 28.08C273.283 28.608 272.946 29.312 272.946 30.192C272.946 30.808 273.093 31.3213 273.386 31.732C273.709 32.1427 274.222 32.48 274.926 32.744C275.63 32.9787 276.569 33.1987 277.742 33.404C280.206 33.7853 282.142 34.284 283.55 34.9C284.987 35.4867 285.999 36.2493 286.586 37.188C287.202 38.0973 287.51 39.1973 287.51 40.488C287.51 41.984 287.085 43.26 286.234 44.316C285.413 45.372 284.239 46.1787 282.714 46.736C281.218 47.264 279.458 47.528 277.434 47.528ZM110.836 85L122.1 53.76H129.096L140.36 85H134.376L131.78 77.608H119.416L116.82 85H110.836ZM121.088 72.724H130.108L125.62 59.524L121.088 72.724ZM152.834 85.528C150.458 85.528 148.566 84.7507 147.158 83.196C145.779 81.612 145.09 79.4267 145.09 76.64V61.504H150.722V75.232C150.722 77.1973 151.045 78.6493 151.69 79.588C152.365 80.4973 153.377 80.952 154.726 80.952C156.251 80.952 157.425 80.4533 158.246 79.456C159.097 78.4293 159.522 76.948 159.522 75.012V61.504H165.154V85H160.006L159.874 78.532L160.578 78.752C160.226 80.9813 159.39 82.668 158.07 83.812C156.75 84.956 155.005 85.528 152.834 85.528ZM181.489 85C179.142 85 177.411 84.4573 176.297 83.372C175.211 82.2867 174.669 80.5853 174.669 78.268V56.004H180.301V77.74C180.301 78.8253 180.535 79.588 181.005 80.028C181.474 80.4387 182.207 80.644 183.205 80.644H186.505V85H181.489ZM170.973 65.86V61.504H186.505V65.86H170.973ZM192.395 85V53.76H198.027V66.872H197.323C197.558 65.5227 198.027 64.4227 198.731 63.572C199.435 62.692 200.3 62.0467 201.327 61.636C202.354 61.196 203.483 60.976 204.715 60.976C206.446 60.976 207.898 61.3573 209.071 62.12C210.274 62.8533 211.168 63.8947 211.755 65.244C212.371 66.5933 212.679 68.148 212.679 69.908V85H207.047V71.272C207.047 69.3653 206.724 67.9427 206.079 67.004C205.434 66.036 204.422 65.552 203.043 65.552C201.518 65.552 200.3 66.0507 199.391 67.048C198.482 68.0453 198.027 69.4973 198.027 71.404V85H192.395ZM230.186 85.528C227.84 85.528 225.801 85.0293 224.07 84.032C222.34 83.0053 221.005 81.568 220.066 79.72C219.128 77.872 218.658 75.716 218.658 73.252C218.658 70.788 219.128 68.6467 220.066 66.828C221.005 64.98 222.325 63.5427 224.026 62.516C225.757 61.4893 227.766 60.976 230.054 60.976C232.284 60.976 234.234 61.4747 235.906 62.472C237.608 63.4693 238.913 64.9067 239.822 66.784C240.732 68.6613 241.186 70.92 241.186 73.56V74.836H224.51C224.628 76.8893 225.185 78.444 226.182 79.5C227.209 80.5267 228.558 81.04 230.23 81.04C231.492 81.04 232.533 80.7613 233.354 80.204C234.205 79.6173 234.792 78.8107 235.114 77.784L240.878 78.136C240.233 80.424 238.957 82.228 237.05 83.548C235.173 84.868 232.885 85.528 230.186 85.528ZM224.51 71.052H235.378C235.261 69.1453 234.718 67.7373 233.75 66.828C232.782 65.8893 231.55 65.42 230.054 65.42C228.558 65.42 227.312 65.904 226.314 66.872C225.346 67.84 224.745 69.2333 224.51 71.052ZM247.349 85V61.504H252.453L252.673 68.104L252.013 67.84C252.247 66.1973 252.731 64.8773 253.465 63.88C254.198 62.8827 255.093 62.1493 256.149 61.68C257.205 61.2107 258.363 60.976 259.625 60.976C261.355 60.976 262.807 61.3573 263.981 62.12C265.183 62.8827 266.093 63.9387 266.709 65.288C267.325 66.608 267.633 68.148 267.633 69.908V85H262.001V71.712C262.001 70.392 261.869 69.2773 261.605 68.368C261.341 67.4587 260.901 66.7693 260.285 66.3C259.698 65.8013 258.906 65.552 257.909 65.552C256.413 65.552 255.21 66.08 254.301 67.136C253.421 68.192 252.981 69.7173 252.981 71.712V85H247.349ZM283.318 85C280.971 85 279.24 84.4573 278.126 83.372C277.04 82.2867 276.498 80.5853 276.498 78.268V56.004H282.13V77.74C282.13 78.8253 282.364 79.588 282.834 80.028C283.303 80.4387 284.036 80.644 285.034 80.644H288.334V85H283.318ZM272.802 65.86V61.504H288.334V65.86H272.802ZM294.224 85V61.504H299.856V85H294.224ZM294.136 58.38V53.364H299.988V58.38H294.136ZM317.579 85.528C315.232 85.528 313.194 85.0293 311.463 84.032C309.732 83.0053 308.383 81.568 307.415 79.72C306.476 77.872 306.007 75.716 306.007 73.252C306.007 70.788 306.476 68.6467 307.415 66.828C308.383 64.98 309.732 63.5427 311.463 62.516C313.194 61.4893 315.232 60.976 317.579 60.976C319.574 60.976 321.348 61.328 322.903 62.032C324.458 62.736 325.719 63.748 326.687 65.068C327.684 66.3587 328.3 67.9427 328.535 69.82L322.727 70.128C322.492 68.632 321.906 67.5027 320.967 66.74C320.058 65.948 318.928 65.552 317.579 65.552C315.76 65.552 314.352 66.2413 313.355 67.62C312.358 68.9693 311.859 70.8467 311.859 73.252C311.859 75.6867 312.358 77.5787 313.355 78.928C314.352 80.2773 315.76 80.952 317.579 80.952C318.958 80.952 320.102 80.556 321.011 79.764C321.95 78.972 322.522 77.74 322.727 76.068L328.535 76.332C328.3 78.2093 327.699 79.8373 326.731 81.216C325.763 82.5947 324.502 83.6653 322.947 84.428C321.392 85.1613 319.603 85.528 317.579 85.528ZM341.388 85.528C338.924 85.528 336.944 84.9707 335.448 83.856C333.952 82.712 333.204 81.128 333.204 79.104C333.204 77.08 333.835 75.496 335.096 74.352C336.358 73.208 338.279 72.3867 340.86 71.888L348.648 70.348C348.648 68.676 348.267 67.4293 347.504 66.608C346.742 65.7573 345.612 65.332 344.116 65.332C342.767 65.332 341.696 65.6547 340.904 66.3C340.142 66.916 339.614 67.8107 339.32 68.984L333.6 68.72C334.07 66.2267 335.214 64.32 337.032 63C338.851 61.6507 341.212 60.976 344.116 60.976C347.46 60.976 349.983 61.8267 351.684 63.528C353.415 65.2 354.28 67.6053 354.28 70.744V79.28C354.28 79.896 354.383 80.3213 354.588 80.556C354.823 80.7907 355.16 80.908 355.6 80.908H356.348V85C356.172 85.0587 355.879 85.1027 355.468 85.132C355.087 85.1613 354.691 85.176 354.28 85.176C353.312 85.176 352.447 85.0293 351.684 84.736C350.922 84.4133 350.335 83.8707 349.924 83.108C349.514 82.316 349.308 81.2453 349.308 79.896L349.792 80.248C349.558 81.2747 349.044 82.1987 348.252 83.02C347.49 83.812 346.522 84.428 345.348 84.868C344.175 85.308 342.855 85.528 341.388 85.528ZM342.532 81.436C343.794 81.436 344.879 81.1867 345.788 80.688C346.698 80.1893 347.402 79.5 347.9 78.62C348.399 77.74 348.648 76.6987 348.648 75.496V74.176L342.576 75.408C341.315 75.672 340.406 76.068 339.848 76.596C339.32 77.0947 339.056 77.7547 339.056 78.576C339.056 79.4853 339.35 80.1893 339.936 80.688C340.552 81.1867 341.418 81.436 342.532 81.436ZM369.979 85C367.632 85 365.901 84.4573 364.787 83.372C363.701 82.2867 363.159 80.5853 363.159 78.268V56.004H368.791V77.74C368.791 78.8253 369.025 79.588 369.495 80.028C369.964 80.4387 370.697 80.644 371.695 80.644H374.995V85H369.979ZM359.463 65.86V61.504H374.995V65.86H359.463ZM380.885 85V61.504H386.517V85H380.885ZM380.797 58.38V53.364H386.649V58.38H380.797ZM404.24 85.528C401.923 85.528 399.884 85.0293 398.124 84.032C396.393 83.0053 395.044 81.568 394.076 79.72C393.137 77.872 392.668 75.716 392.668 73.252C392.668 70.7587 393.137 68.6027 394.076 66.784C395.044 64.936 396.393 63.5133 398.124 62.516C399.884 61.4893 401.923 60.976 404.24 60.976C406.557 60.976 408.581 61.4893 410.312 62.516C412.043 63.5133 413.377 64.936 414.316 66.784C415.284 68.6027 415.768 70.7587 415.768 73.252C415.768 75.716 415.284 77.872 414.316 79.72C413.377 81.568 412.043 83.0053 410.312 84.032C408.581 85.0293 406.557 85.528 404.24 85.528ZM404.24 80.952C406.059 80.952 407.452 80.2773 408.42 78.928C409.417 77.5787 409.916 75.6867 409.916 73.252C409.916 70.8467 409.417 68.9693 408.42 67.62C407.452 66.2413 406.059 65.552 404.24 65.552C402.421 65.552 401.013 66.2413 400.016 67.62C399.019 68.9693 398.52 70.8467 398.52 73.252C398.52 75.6867 399.019 77.5787 400.016 78.928C401.013 80.2773 402.421 80.952 404.24 80.952ZM421.874 85V61.504H426.978L427.198 68.104L426.538 67.84C426.773 66.1973 427.257 64.8773 427.99 63.88C428.723 62.8827 429.618 62.1493 430.674 61.68C431.73 61.2107 432.889 60.976 434.15 60.976C435.881 60.976 437.333 61.3573 438.506 62.12C439.709 62.8827 440.618 63.9387 441.234 65.288C441.85 66.608 442.158 68.148 442.158 69.908V85H436.526V71.712C436.526 70.392 436.394 69.2773 436.13 68.368C435.866 67.4587 435.426 66.7693 434.81 66.3C434.223 65.8013 433.431 65.552 432.434 65.552C430.938 65.552 429.735 66.08 428.826 67.136C427.946 68.192 427.506 69.7173 427.506 71.712V85H421.874Z" fill="#1B59FB"/>
<defs>
<linearGradient id="paint0_linear_1498_4" x1="50" y1="0" x2="50" y2="100" gradientUnits="userSpaceOnUse">
<stop stop-color="#155DFC"/>
<stop offset="1" stop-color="#7F22FE"/>
</linearGradient>
</defs>
</svg>
